<svg width="120" height="120" viewBox="0 0 120 120" fill="none" xmlns="http://www.w3.org/2000/svg">
<path fill-rule="evenodd" clip-rule="evenodd" d="M120 32H110.625V53.1639C107.867 51.5757 104.665 50.6667 101.25 50.6667C90.8947 50.6667 82.5 59.024 82.5 69.3333C82.5 79.6426 90.8947 88 101.25 88C111.605 88 120 79.6426 120 69.3333V32ZM110.625 69.3333C110.625 64.1787 106.428 60 101.25 60C96.0723 60 91.875 64.1787 91.875 69.3333C91.875 74.488 96.0723 78.6667 101.25 78.6667C106.428 78.6667 110.625 74.488 110.625 69.3333Z" fill="#32693C"/>
<path fill-rule="evenodd" clip-rule="evenodd" d="M60 32C70.3553 32 78.75 40.3574 78.75 50.6667V88H69.375V79.04H50.625V88H41.25V50.6667C41.25 40.3574 49.6447 32 60 32ZM50.625 50.6667V69.7067H69.375V50.6667C69.375 45.512 65.1777 41.3333 60 41.3333C54.8223 41.3333 50.625 45.512 50.625 50.6667Z" fill="#32693C"/>
<path fill-rule="evenodd" clip-rule="evenodd" d="M37.5 32H28.125H9.375V41.3333H28.125V69.3333C28.125 74.488 23.9277 78.6667 18.75 78.6667C13.5723 78.6667 9.375 74.488 9.375 69.3333V64.1067H0V69.3333C0 79.6426 8.39466 88 18.75 88C29.1053 88 37.5 79.6426 37.5 69.3333V32Z" fill="#32693C"/>
</svg>
