<svg width="120" height="56" viewBox="0 0 120 56" fill="none" xmlns="http://www.w3.org/2000/svg">
<path fill-rule="evenodd" clip-rule="evenodd" d="M120 0H110.625V21.1639C107.867 19.5757 104.665 18.6667 101.25 18.6667C90.8947 18.6667 82.5 27.024 82.5 37.3333C82.5 47.6426 90.8947 56 101.25 56C111.605 56 120 47.6426 120 37.3333V0ZM110.625 37.3333C110.625 32.1787 106.428 28 101.25 28C96.0723 28 91.875 32.1787 91.875 37.3333C91.875 42.488 96.0723 46.6667 101.25 46.6667C106.428 46.6667 110.625 42.488 110.625 37.3333Z" fill="#32693C"/>
<path fill-rule="evenodd" clip-rule="evenodd" d="M60 0C70.3553 0 78.75 8.35735 78.75 18.6667V56H69.375V47.04H50.625V56H41.25V18.6667C41.25 8.35735 49.6447 0 60 0ZM50.625 18.6667V37.7067H69.375V18.6667C69.375 13.512 65.1777 9.33333 60 9.33333C54.8223 9.33333 50.625 13.512 50.625 18.6667Z" fill="#32693C"/>
<path fill-rule="evenodd" clip-rule="evenodd" d="M37.5 0H28.125H9.375V9.33333H28.125V37.3333C28.125 42.488 23.9277 46.6667 18.75 46.6667C13.5723 46.6667 9.375 42.488 9.375 37.3333V32.1067H0V37.3333C0 47.6426 8.39466 56 18.75 56C29.1053 56 37.5 47.6426 37.5 37.3333V0Z" fill="#32693C"/>
</svg>
